# xmcd
#
# Track frame offsets:
#	150
#	38846
#	66691
#	88513
#	118323
#	141516
#	172850
#	202638
#
# Disc length: 3287
#
# Revision: 1
# Processed by: cddbd v1.5.1PL0 Copyright (c) Steve Scherf et al.
# Submitted via: ExactAudioCopy v0.95a5
# Normalized: r0:TRMNUM
#
DISCID=700cd508
DTITLE=JALAN JALAN - ¤Ú¨½II BALI dua
DYEAR=1900
DGENRE=
TTITLE0=KAJA [come from]
TTITLE1=SEKAR
TTITLE2=Step
TTITLE3=WARI
TTITLE4=Hug with the Wind
TTITLE5=BULAN
TTITLE6=Barong Forest
TTITLE7=Horizon
EXTD=
EXTT0=
EXTT1=
EXTT2=
EXTT3=
EXTT4=
EXTT5=
EXTT6=
EXTT7=
PLAYORDER=
